<?xml version="1.0" standalone="no"?>
<!DOCTYPE svg PUBLIC "-//W3C//DTD SVG 20010904//EN"
 "http://www.w3.org/TR/2001/REC-SVG-20010904/DTD/svg10.dtd">
<svg version="1.0" xmlns="http://www.w3.org/2000/svg"
 width="180.000000pt" height="180.000000pt" viewBox="0 0 180.000000 180.000000"
 preserveAspectRatio="xMidYMid meet">
<metadata>
Created by potrace 1.16, written by Peter Selinger 2001-2019
</metadata>
<g transform="translate(0.000000,180.000000) scale(0.100000,-0.100000)"
fill="#000000" stroke="none">
<path d="M0 900 l0 -280 900 0 900 0 0 280 0 280 -900 0 -900 0 0 -280z m904
88 c20 -28 21 -117 3 -142 -15 -20 -62 -25 -79 -8 -20 20 -22 119 -4 147 21
32 59 33 80 3z m93 -23 c7 -22 16 -47 19 -55 4 -9 13 7 23 40 31 101 61 68 61
-67 0 -41 -4 -53 -15 -53 -12 0 -15 13 -16 58 l0 57 -17 -45 c-10 -25 -24 -45
-31 -45 -8 0 -21 20 -30 45 l-16 45 -3 -57 c-2 -45 -7 -58 -19 -58 -13 0 -15
9 -9 61 3 34 6 75 6 91 0 43 30 32 47 -17z"/>
</g>
</svg>
